PathFileType	4	(X/Y/Z)	 s04c0103.trc
DataRate	CameraRate	NumFrames	NumMarkers	Units	OrigDataRate	OrigDataStartFrame	OrigNumFrames
200	200	5	50	mm	200	501	2000
Frame#	Time	racr			lacr			c7			jug			rlel			rdr			llel			ldr			s2			lic			ric			lasi			rasi			rpsi			lpsi			rgt			lgt			rth1			rth2			rth3			rth4			rlfc			rmfc			rsh1			rsh2			rsh3			rsh4			rlmal			rmmal			rcal			rtoe			rmt5			lth1			lth2			lth4			lth3			llfc			lmfc			lsh1			lsh2			lsh3			lsh4			llmal			lmmal			lcal			ltoe			lmt5			SBIKE			LBIKE			RBIKE			
		X1	Y1	Z1	X2	Y2	Z2	X3	Y3	Z3	X4	Y4	Z4	X5	Y5	Z5	X6	Y6	Z6	X7	Y7	Z7	X8	Y8	Z8	X9	Y9	Z9	X10	Y10	Z10	X11	Y11	Z11	X12	Y12	Z12	X13	Y13	Z13	X14	Y14	Z14	X15	Y15	Z15	X16	Y16	Z16	X17	Y17	Z17	X18	Y18	Z18	X19	Y19	Z19	X20	Y20	Z20	X21	Y21	Z21	X22	Y22	Z22	X23	Y23	Z23	X24	Y24	Z24	X25	Y25	Z25	X26	Y26	Z26	X27	Y27	Z27	X28	Y28	Z28	X29	Y29	Z29	X30	Y30	Z30	X31	Y31	Z31	X32	Y32	Z32	X33	Y33	Z33	X34	Y34	Z34	X35	Y35	Z35	X36	Y36	Z36	X37	Y37	Z37	X38	Y38	Z38	X39	Y39	Z39	X40	Y40	Z40	X41	Y41	Z41	X42	Y42	Z42	X43	Y43	Z43	X44	Y44	Z44	X45	Y45	Z45	X46	Y46	Z46	X47	Y47	Z47	X48	Y48	Z48	X49	Y49	Z49	X50	Y50	Z50	
501	2.5050	486.999815	1384.250745	-119.569060	510.572426	1375.462589	-372.514245	475.458780	1430.870890	-254.595794	454.462018	1276.039235	-254.304714	445.813649	1086.608184	14.585354	681.164847	927.419252	-75.704682	502.521598	1115.925946	-525.999881	703.558950	913.929819	-452.950703	-77.576702	1174.178708	-299.277265	91.925583	1181.160115	-440.666130	59.837085	1205.278325	-123.862593	130.516398	1137.565623	-389.357106	115.795507	1162.619796	-160.659988	-57.562838	1226.056862	-257.453055	-47.736891	1223.573385	-332.956481	20.792756	1148.625181	-104.346354	55.081911	1086.363096	-466.610550	152.972115	1049.808386	-90.544615	234.589534	1017.745149	-102.109372	289.932031	953.692191	-107.155226	252.983538	1046.872140	-118.086284	394.943023	853.907120	-130.539511	379.206734	828.555657	-242.896270	357.085282	733.627473	-102.102017	353.317620	643.170864	-115.139315	304.596579	572.426744	-119.036966	384.969162	637.233740	-137.330263	271.215240	424.083653	-119.817087	289.362010	431.762133	-205.413565	203.603881	383.300991	-156.616321	503.777855	398.917370	-145.503448	439.862428	368.300721	-90.204959	111.861724	1019.014706	-476.011905	186.298442	974.842653	-477.705214	210.663580	997.890156	-464.574410	230.511781	897.971671	-487.002653	312.560150	765.359681	-469.212958	337.966842	736.069258	-361.040300	254.070251	659.293893	-489.576050	215.512096	586.300342	-461.650526	142.173408	536.197991	-456.947828	237.788016	573.860215	-431.958814	42.651503	428.156517	-444.160819	40.688005	432.523609	-355.932579	-34.843294	453.305796	-399.668013	199.571827	256.080008	-406.492969	120.858455	273.485158	-466.294426	-177.350357	933.799654	-280.795505	-3.387053	85.516028	-484.838306	-15.115471	80.326124	-84.301639	
502	2.5100	487.659554	1384.139355	-119.038239	510.596160	1376.077134	-372.069663	476.111384	1431.251535	-253.947877	454.573634	1276.418267	-254.118793	445.822712	1086.643006	14.821027	681.220709	927.541116	-75.636396	503.248161	1116.708083	-525.547244	703.777575	913.916742	-452.813614	-77.573793	1175.882689	-298.892359	91.928858	1182.724419	-439.948308	59.995991	1205.863043	-123.170848	130.272298	1138.775511	-388.495598	116.294157	1162.457242	-160.076040	-57.515645	1227.202926	-256.815351	-47.469530	1225.058826	-332.348265	20.564040	1148.802077	-104.258656	55.441188	1088.472964	-466.698902	151.722606	1048.181600	-89.935528	232.835927	1014.954382	-101.413803	287.158602	950.001542	-106.562344	251.727538	1043.821498	-117.183818	391.151955	848.792402	-129.710468	374.484482	822.969708	-242.096476	354.539102	727.822735	-101.269730	351.866041	637.321394	-114.403728	303.976561	566.047295	-118.366050	383.615829	631.871291	-136.661139	272.256986	417.208426	-119.192440	291.146758	425.369378	-204.576822	204.946292	376.476176	-156.024633	505.159611	391.983874	-145.683524	441.305463	361.281036	-90.181142	112.107441	1021.423912	-476.124973	186.859809	977.924184	-478.046286	211.120922	1001.076030	-464.586072	231.734226	901.434942	-487.415509	314.630244	769.397959	-469.777153	340.295470	740.115798	-361.690280	255.579872	663.708969	-489.877935	216.396233	591.197288	-461.619425	142.647337	541.603999	-456.654445	238.511305	578.584340	-431.860066	41.897760	435.062780	-443.841149	40.855275	438.977855	-355.846476	-35.571291	460.558702	-399.477902	198.220887	262.686839	-406.554255	119.522827	280.372733	-466.269056	-177.267417	933.800353	-280.752384	-3.384480	85.535744	-484.834251	-15.098241	80.339900	-84.287277	
503	2.5150	488.393322	1384.027079	-118.474587	510.589472	1376.532616	-371.644577	476.681380	1431.477797	-253.448662	454.725987	1276.772926	-253.959593	445.941271	1086.647321	15.179224	681.351185	927.583679	-75.536932	503.909173	1117.489454	-525.087971	703.948281	913.936331	-452.617225	-77.337202	1177.302556	-298.482305	91.990554	1184.451146	-439.280114	60.294468	1206.566466	-122.463827	130.688190	1141.050600	-388.565941	116.841433	1162.315706	-159.505653	-57.471978	1228.268560	-256.215373	-47.177394	1226.660959	-331.643815	20.448610	1148.932151	-104.146989	55.979058	1090.618927	-466.777025	150.499216	1046.334988	-89.092281	230.988364	1011.700601	-100.091962	284.606795	946.278823	-105.703455	250.584828	1040.935492	-116.250447	387.313563	843.507800	-128.954214	370.434903	817.558045	-241.246679	351.670519	721.905278	-100.271085	350.265223	631.409845	-113.667596	303.291088	559.599273	-117.718254	381.783828	626.199403	-136.150696	273.111409	410.396949	-118.647145	291.211889	417.840875	-204.783953	206.034391	369.785686	-155.351741	506.319774	384.763443	-145.813607	442.446827	354.146950	-89.974435	112.628409	1024.122896	-476.157729	187.731980	981.258393	-478.360543	211.925783	1004.407882	-464.490711	233.273810	905.005302	-487.934906	316.851978	773.449364	-470.367246	343.760769	744.060109	-362.160466	257.203513	668.211953	-490.138619	217.352705	596.194416	-461.594353	143.188465	547.237861	-456.433635	239.696438	583.586854	-431.993429	41.428629	441.912553	-443.431773	40.350518	445.937389	-355.468255	-36.010786	467.785856	-399.011375	197.198380	269.330933	-406.522580	118.565711	287.300465	-466.185414	-177.231200	933.827531	-280.653906	-3.375586	85.539637	-484.818374	-15.086674	80.338459	-84.284987	
504	2.5200	489.143516	1383.826735	-117.860284	510.649482	1377.070647	-371.219055	477.311232	1431.791067	-252.770498	454.944267	1277.108518	-253.736777	446.244655	1086.636861	15.659447	681.755821	927.750422	-75.425428	504.530212	1118.215658	-524.653521	704.121228	914.007117	-452.441689	-76.986562	1178.637242	-298.013026	92.050330	1186.334904	-438.681783	60.719577	1206.954948	-121.751850	130.829401	1142.638885	-388.164520	117.432768	1162.193349	-158.948533	-57.224622	1229.544978	-255.441621	-46.935044	1228.197944	-330.911700	20.511299	1148.973574	-103.979158	56.604148	1092.862773	-466.898371	149.346254	1044.700048	-88.619247	229.534409	1008.897192	-99.992065	281.989931	942.417901	-105.174912	249.321700	1037.527867	-115.262365	383.528526	838.201295	-128.270900	366.311620	812.131608	-240.449594	349.069350	715.961181	-99.488608	348.590237	625.510573	-113.044843	302.405476	553.177581	-117.052680	380.180635	620.653536	-135.608304	273.723772	403.614467	-118.087092	291.877734	411.235501	-204.186354	206.867987	363.132417	-154.727121	507.232711	377.524642	-146.002136	443.362875	346.757402	-90.221665	113.385831	1026.797578	-476.267872	188.786486	984.436780	-478.395586	212.608049	1007.772972	-464.451001	234.934304	908.775940	-488.396991	319.018341	777.658498	-470.890372	346.084034	748.336769	-362.862714	258.807437	672.916125	-490.490698	218.318101	601.343097	-461.595213	143.732279	553.228377	-456.337524	240.273182	588.663719	-431.735308	41.163677	448.947332	-443.001264	40.182996	452.955430	-355.036943	-36.197701	474.999468	-398.285518	196.420936	275.922199	-406.421835	117.833954	294.222209	-466.043679	-177.189734	933.847400	-280.513539	-3.361885	85.573973	-484.811129	-15.088071	80.337826	-84.273672	
505	2.5250	489.970089	1383.667753	-117.262370	510.776500	1377.388919	-370.805708	477.882306	1431.974408	-252.180767	455.204363	1277.394176	-253.399323	446.679101	1086.546855	16.165378	682.330740	927.990695	-75.330498	505.158138	1118.934697	-524.313422	704.282933	914.152204	-452.311678	-76.697084	1179.934236	-297.453978	92.162689	1188.271369	-438.012284	61.197875	1207.355570	-121.072524	130.200429	1143.649999	-386.632241	118.063599	1162.088334	-158.404388	-56.822079	1230.718707	-254.488839	-46.630644	1229.750387	-330.004121	20.677229	1148.848330	-103.792107	57.375475	1095.207002	-467.011575	148.364536	1042.633940	-88.109966	227.825810	1005.599335	-99.169303	279.621732	938.312113	-104.653090	248.144409	1033.786416	-114.383013	379.802274	832.784741	-127.452010	362.142100	806.716543	-239.758729	346.534837	710.093085	-98.859589	346.805964	619.630264	-112.458544	301.435428	546.825988	-116.434609	378.460946	615.135822	-135.190275	274.151788	396.892735	-117.496484	292.381052	404.693874	-203.589405	207.481759	356.768507	-154.014933	508.008187	370.092570	-146.134862	444.125428	339.470327	-90.216303	114.309906	1029.621694	-476.390105	190.073800	987.940473	-478.557060	213.649321	1011.290205	-464.389904	236.873842	912.625758	-488.907138	321.240751	781.908068	-471.534136	348.517836	752.715354	-363.650402	260.473542	677.882584	-490.938759	219.486522	606.658307	-461.819354	144.329863	559.259849	-456.490651	241.353153	593.909840	-431.879360	41.216965	455.948327	-442.593705	40.207738	459.991409	-354.661121	-36.124706	482.339534	-397.717857	195.929633	282.665405	-406.336195	117.397601	301.228348	-465.934140	-177.138866	933.871749	-280.367877	-3.350420	85.603361	-484.802907	-15.083645	80.359954	-84.271518	
